<svg width="100" height="18" viewBox="0 0 100 18" fill="none" xmlns="http://www.w3.org/2000/svg">
<path d="M1.092 7.96C1.484 7.944 1.772 7.86 1.956 7.708C2.14 7.548 2.232 7.324 2.232 7.036C2.232 6.82 2.192 6.392 2.112 5.752C2.104 5.688 2.08 5.484 2.04 5.14C2 4.788 1.98 4.472 1.98 4.192C1.98 3.512 2.188 2.984 2.604 2.608C3.02 2.224 3.576 2.032 4.272 2.032H5.136V3.712H4.668C4.412 3.712 4.228 3.768 4.116 3.88C4.004 3.992 3.948 4.164 3.948 4.396C3.948 4.572 3.98 4.972 4.044 5.596C4.116 6.372 4.152 6.88 4.152 7.12C4.152 7.56 4.044 7.924 3.828 8.212C3.62 8.5 3.3 8.684 2.868 8.764V8.788C3.3 8.876 3.62 9.064 3.828 9.352C4.044 9.632 4.152 9.996 4.152 10.444C4.152 10.684 4.116 11.192 4.044 11.968C3.98 12.576 3.948 12.972 3.948 13.156C3.948 13.388 4.004 13.56 4.116 13.672C4.228 13.792 4.412 13.852 4.668 13.852H5.136V15.532H4.272C3.576 15.532 3.02 15.34 2.604 14.956C2.188 14.58 1.98 14.048 1.98 13.36C1.98 13.08 2 12.768 2.04 12.424C2.08 12.072 2.104 11.864 2.112 11.8C2.192 11.16 2.232 10.732 2.232 10.516C2.232 10.244 2.14 10.028 1.956 9.868C1.772 9.7 1.484 9.608 1.092 9.592V7.96ZM13.4273 9.592C13.0353 9.608 12.7473 9.7 12.5633 9.868C12.3793 10.028 12.2873 10.244 12.2873 10.516C12.2873 10.732 12.3273 11.16 12.4073 11.8C12.4153 11.864 12.4393 12.072 12.4793 12.424C12.5193 12.768 12.5393 13.08 12.5393 13.36C12.5393 14.048 12.3313 14.58 11.9153 14.956C11.4993 15.34 10.9433 15.532 10.2473 15.532H9.38325V13.852H9.85125C10.1073 13.852 10.2913 13.792 10.4033 13.672C10.5153 13.56 10.5713 13.388 10.5713 13.156C10.5713 12.972 10.5393 12.576 10.4753 11.968C10.4033 11.192 10.3673 10.684 10.3673 10.444C10.3673 9.996 10.4713 9.632 10.6793 9.352C10.8953 9.064 11.2193 8.876 11.6513 8.788V8.764C11.2193 8.684 10.8953 8.5 10.6793 8.212C10.4713 7.924 10.3673 7.56 10.3673 7.12C10.3673 6.88 10.4033 6.372 10.4753 5.596C10.5393 4.972 10.5713 4.572 10.5713 4.396C10.5713 4.164 10.5153 3.992 10.4033 3.88C10.2913 3.768 10.1073 3.712 9.85125 3.712H9.38325V2.032H10.2473C10.9433 2.032 11.4993 2.224 11.9153 2.608C12.3313 2.984 12.5393 3.512 12.5393 4.192C12.5393 4.472 12.5193 4.788 12.4793 5.14C12.4393 5.484 12.4153 5.688 12.4073 5.752C12.3273 6.392 12.2873 6.82 12.2873 7.036C12.2873 7.324 12.3793 7.548 12.5633 7.708C12.7473 7.86 13.0353 7.944 13.4273 7.96V9.592Z" fill="black"/>
<path d="M18.396 8.776C18.396 7.944 18.576 7.204 18.936 6.556C19.296 5.9 19.796 5.392 20.436 5.032C21.084 4.664 21.816 4.48 22.632 4.48C23.632 4.48 24.488 4.744 25.2 5.272C25.912 5.8 26.388 6.52 26.628 7.432H24.372C24.204 7.08 23.964 6.812 23.652 6.628C23.348 6.444 23 6.352 22.608 6.352C21.976 6.352 21.464 6.572 21.072 7.012C20.68 7.452 20.484 8.04 20.484 8.776C20.484 9.512 20.68 10.1 21.072 10.54C21.464 10.98 21.976 11.2 22.608 11.2C23 11.2 23.348 11.108 23.652 10.924C23.964 10.74 24.204 10.472 24.372 10.12H26.628C26.388 11.032 25.912 11.752 25.2 12.28C24.488 12.8 23.632 13.06 22.632 13.06C21.816 13.06 21.084 12.88 20.436 12.52C19.796 12.152 19.296 11.644 18.936 10.996C18.576 10.348 18.396 9.608 18.396 8.776ZM31.8686 13.084C31.0766 13.084 30.3486 12.9 29.6846 12.532C29.0286 12.164 28.5046 11.652 28.1126 10.996C27.7286 10.332 27.5366 9.588 27.5366 8.764C27.5366 7.94 27.7286 7.2 28.1126 6.544C28.5046 5.888 29.0286 5.376 29.6846 5.008C30.3486 4.64 31.0766 4.456 31.8686 4.456C32.6606 4.456 33.3846 4.64 34.0406 5.008C34.7046 5.376 35.2246 5.888 35.6006 6.544C35.9846 7.2 36.1766 7.94 36.1766 8.764C36.1766 9.588 35.9846 10.332 35.6006 10.996C35.2166 11.652 34.6966 12.164 34.0406 12.532C33.3846 12.9 32.6606 13.084 31.8686 13.084ZM31.8686 11.212C32.5406 11.212 33.0766 10.988 33.4766 10.54C33.8846 10.092 34.0886 9.5 34.0886 8.764C34.0886 8.02 33.8846 7.428 33.4766 6.988C33.0766 6.54 32.5406 6.316 31.8686 6.316C31.1886 6.316 30.6446 6.536 30.2366 6.976C29.8366 7.416 29.6366 8.012 29.6366 8.764C29.6366 9.508 29.8366 10.104 30.2366 10.552C30.6446 10.992 31.1886 11.212 31.8686 11.212ZM40.4742 4.576C41.3622 4.576 42.1382 4.752 42.8022 5.104C43.4662 5.456 43.9782 5.952 44.3382 6.592C44.7062 7.224 44.8902 7.956 44.8902 8.788C44.8902 9.612 44.7062 10.344 44.3382 10.984C43.9782 11.624 43.4622 12.12 42.7902 12.472C42.1262 12.824 41.3542 13 40.4742 13H37.3182V4.576H40.4742ZM40.3422 11.224C41.1182 11.224 41.7222 11.012 42.1542 10.588C42.5862 10.164 42.8022 9.564 42.8022 8.788C42.8022 8.012 42.5862 7.408 42.1542 6.976C41.7222 6.544 41.1182 6.328 40.3422 6.328H39.3702V11.224H40.3422ZM48.089 6.22V7.924H50.837V9.508H48.089V11.356H51.197V13H46.037V4.576H51.197V6.22H48.089ZM57.6292 8.68C58.1172 8.784 58.5092 9.028 58.8052 9.412C59.1012 9.788 59.2492 10.22 59.2492 10.708C59.2492 11.412 59.0012 11.972 58.5052 12.388C58.0172 12.796 57.3332 13 56.4532 13H52.5292V4.576H56.3212C57.1772 4.576 57.8452 4.772 58.3252 5.164C58.8132 5.556 59.0572 6.088 59.0572 6.76C59.0572 7.256 58.9252 7.668 58.6612 7.996C58.4052 8.324 58.0612 8.552 57.6292 8.68ZM54.5812 7.984H55.9252C56.2612 7.984 56.5172 7.912 56.6932 7.768C56.8772 7.616 56.9692 7.396 56.9692 7.108C56.9692 6.82 56.8772 6.6 56.6932 6.448C56.5172 6.296 56.2612 6.22 55.9252 6.22H54.5812V7.984ZM56.0932 11.344C56.4372 11.344 56.7012 11.268 56.8852 11.116C57.0772 10.956 57.1732 10.728 57.1732 10.432C57.1732 10.136 57.0732 9.904 56.8732 9.736C56.6812 9.568 56.4132 9.484 56.0692 9.484H54.5812V11.344H56.0932ZM64.7353 13L62.9833 9.82H62.4913V13H60.4393V4.576H63.8833C64.5473 4.576 65.1113 4.692 65.5753 4.924C66.0473 5.156 66.3993 5.476 66.6313 5.884C66.8633 6.284 66.9793 6.732 66.9793 7.228C66.9793 7.788 66.8193 8.288 66.4993 8.728C66.1873 9.168 65.7233 9.48 65.1073 9.664L67.0513 13H64.7353ZM62.4913 8.368H63.7633C64.1393 8.368 64.4193 8.276 64.6033 8.092C64.7953 7.908 64.8913 7.648 64.8913 7.312C64.8913 6.992 64.7953 6.74 64.6033 6.556C64.4193 6.372 64.1393 6.28 63.7633 6.28H62.4913V8.368ZM70.3194 6.22V7.924H73.0674V9.508H70.3194V11.356H73.4274V13H68.2674V4.576H73.4274V6.22H70.3194ZM80.0036 11.512H76.8596L76.3556 13H74.2076L77.2556 4.576H79.6316L82.6796 13H80.5076L80.0036 11.512ZM79.4756 9.928L78.4316 6.844L77.3996 9.928H79.4756ZM88.4913 13L85.6593 9.28V13H83.6073V4.576H85.6593V8.272L88.4673 4.576H90.8793L87.6153 8.704L90.9993 13H88.4913ZM96.2705 13L94.5185 9.82H94.0265V13H91.9745V4.576H95.4185C96.0825 4.576 96.6465 4.692 97.1105 4.924C97.5825 5.156 97.9345 5.476 98.1665 5.884C98.3985 6.284 98.5145 6.732 98.5145 7.228C98.5145 7.788 98.3545 8.288 98.0345 8.728C97.7225 9.168 97.2585 9.48 96.6425 9.664L98.5865 13H96.2705ZM94.0265 8.368H95.2985C95.6745 8.368 95.9545 8.276 96.1385 8.092C96.3305 7.908 96.4265 7.648 96.4265 7.312C96.4265 6.992 96.3305 6.74 96.1385 6.556C95.9545 6.372 95.6745 6.28 95.2985 6.28H94.0265V8.368Z" fill="black"/>
</svg>
